<?xml version="1.0" encoding="UTF-8" standalone="no"?>
<!-- Generator: Adobe Illustrator 19.0.0, SVG Export Plug-In . SVG Version: 6.00 Build 0)  -->

<svg
   xmlns:dc="http://purl.org/dc/elements/1.1/"
   xmlns:cc="http://creativecommons.org/ns#"
   xmlns:rdf="http://www.w3.org/1999/02/22-rdf-syntax-ns#"
   xmlns:svg="http://www.w3.org/2000/svg"
   xmlns="http://www.w3.org/2000/svg"
   xmlns:sodipodi="http://sodipodi.sourceforge.net/DTD/sodipodi-0.dtd"
   xmlns:inkscape="http://www.inkscape.org/namespaces/inkscape"
   version="1.1"
   id="Layer_1"
   x="0px"
   y="0px"
   viewBox="0 0 512 512"
   xml:space="preserve"
   sodipodi:docname="coat-woman.svg"
   width="512"
   height="512"
   inkscape:version="0.92.4 (5da689c313, 2019-01-14)"
   inkscape:export-filename="C:\Users\lucab\Dev\cruciani-stickers\res\capotto_donna_sciarpa_bianca.png"
   inkscape:export-xdpi="96"
   inkscape:export-ydpi="96"><metadata
   id="metadata83"><rdf:RDF><cc:Work
       rdf:about=""><dc:format>image/svg+xml</dc:format><dc:type
         rdf:resource="http://purl.org/dc/dcmitype/StillImage" /><dc:title /></cc:Work></rdf:RDF></metadata><defs
   id="defs81" /><sodipodi:namedview
   pagecolor="#ffffff"
   bordercolor="#666666"
   borderopacity="1"
   objecttolerance="10"
   gridtolerance="10"
   guidetolerance="10"
   inkscape:pageopacity="0"
   inkscape:pageshadow="2"
   inkscape:window-width="1920"
   inkscape:window-height="1017"
   id="namedview79"
   showgrid="false"
   inkscape:zoom="1.3037078"
   inkscape:cx="222.03533"
   inkscape:cy="259.06697"
   inkscape:window-x="-8"
   inkscape:window-y="-8"
   inkscape:window-maximized="1"
   inkscape:current-layer="Layer_1" />















<g
   id="g123"
   inkscape:label="cappotto"><g
     id="g46"
     transform="translate(0,-1.0079956)">
	<path
   inkscape:connector-curvature="0"
   id="path2"
   d="m 343.867,345.955 -0.141,-0.221 c -3.655,-5.756 -7.459,-13.347 -9.966,-19.624 h -0.026 c -2.18,0.962 -4.573,1.518 -7.106,1.518 h -81.973 l 26.483,185.379 H 379.594 V 468.87 c -0.002,-43.538 -12.396,-86.166 -35.727,-122.915"
   style="fill:#1a1a1a" />
	<path
   inkscape:connector-curvature="0"
   id="path4"
   d="m 185.382,327.625 c -2.534,0 -4.935,-0.556 -7.115,-1.518 h -0.018 c -2.516,6.276 -6.321,13.877 -9.975,19.633 l -0.132,0.212 c -23.331,36.758 -35.725,79.386 -35.725,122.915 v 44.138 H 271.134 L 244.651,327.626 h -59.269 z"
   style="fill:#1a1a1a" />
	<path
   inkscape:connector-curvature="0"
   id="path6"
   d="m 378.911,68.477 c -0.053,-0.433 -0.106,-0.847 -0.15,-1.28 2.101,-12.482 -4.29,-24.611 -15.351,-30.146 L 291.315,1.008 220.694,159.905 237.087,274.664 h 89.538 v -12.12 c 13.515,-27.039 25.953,-55.225 34.198,-84.109 L 462.8,362.939 503.177,345.098 Z"
   style="fill:#1a1a1a" />
	<g
   style="fill:#1a1a1a"
   id="g12">
		<path
   inkscape:connector-curvature="0"
   id="path8"
   d="m 185.382,262.544 v 12.111 h 51.703 L 220.692,159.896 256.002,80.448 220.693,1 148.598,37.052 c -11.061,5.535 -17.461,17.664 -15.351,30.146 -0.053,0.433 -0.097,0.847 -0.15,1.28 L 8.831,345.099 49.2,362.931 151.185,178.434 c 8.235,28.884 20.682,57.071 34.197,84.11"
   style="fill:#1a1a1a" />
		<path
   inkscape:connector-curvature="0"
   id="path10"
   d="m 378.911,68.477 c -0.053,-0.433 -0.106,-0.847 -0.15,-1.28 2.101,-12.482 -4.29,-24.611 -15.351,-30.146 l -72.095,-36.043 35.31,52.957 -35.31,8.836 17.655,17.655 -30.111,27.092 c 17.788,21.186 44.412,34.701 74.249,34.701 19.191,0 37.032,-5.641 52.092,-15.254 z"
   style="fill:#1a1a1a" />
	</g>
	<g
   style="fill:#000000"
   id="g18">
		<path
   inkscape:connector-curvature="0"
   id="path14"
   d="m 203.038,80.453 17.655,-17.655 -35.31,-8.828 35.31,-52.966 -72.095,36.043 c -11.061,5.535 -17.461,17.673 -15.351,30.146 -0.053,0.441 -0.097,0.847 -0.15,1.28 L 106.808,127 c 15.06,9.604 32.9,15.245 52.092,15.245 33.774,0 63.435,-17.284 80.808,-43.458 z"
   style="fill:#000000" />
		<path
   inkscape:connector-curvature="0"
   id="path16"
   d="M 252.19,71.871 220.693,1.003 Z"
   style="fill:#000000" />
	</g>
	<path
   inkscape:connector-curvature="0"
   id="path20"
   d="m 361.934,89.28 c 0,4.873 -3.955,8.828 -8.828,8.828 -4.873,0 -8.828,-3.955 -8.828,-8.828 0,-4.873 3.955,-8.828 8.828,-8.828 4.873,0.001 8.828,3.955 8.828,8.828"
   style="fill:#666666" />
	<path
   inkscape:connector-curvature="0"
   id="path22"
   d="m 167.727,89.28 c 0,4.873 -3.955,8.828 -8.828,8.828 -4.873,0 -8.828,-3.955 -8.828,-8.828 0,-4.873 3.955,-8.828 8.828,-8.828 4.873,0.001 8.828,3.955 8.828,8.828"
   style="fill:#666666" />
	<polygon
   id="polygon24"
   points="291.313,1.004 256.003,80.453 220.693,1.004 "
   style="fill:#000000" />
	<polygon
   id="polygon26"
   points="256.003,80.453 291.313,1.004 326.624,53.97 291.313,62.798 308.969,80.453 220.693,159.901 "
   style="fill:#333333" />
	<polygon
   id="polygon28"
   points="486.774,308.586 443.033,327.159 462.807,362.937 503.176,345.097 "
   style="fill:#000000" />
	<polygon
   id="polygon30"
   points="8.832,345.099 49.2,362.94 69.645,325.943 25.798,307.326 "
   style="fill:#000000" />
	<g
   style="fill:#333333"
   id="g36">
		<polygon
   id="polygon32"
   points="185.383,53.966 220.694,62.793 203.038,80.448 246.373,102.12 256.004,80.448 220.694,1 "
   style="fill:#333333" />
		<path
   inkscape:connector-curvature="0"
   id="path34"
   d="m 317.796,177.556 h -35.31 c -4.873,0 -8.828,-3.946 -8.828,-8.828 0,-4.882 3.955,-8.828 8.828,-8.828 h 35.31 c 4.873,0 8.828,3.946 8.828,8.828 0,4.882 -3.955,8.828 -8.828,8.828"
   style="fill:#333333" />
	</g>
	<path
   inkscape:connector-curvature="0"
   id="path38"
   d="m 220.693,424.729 h -52.966 c -4.873,0 -8.828,-3.946 -8.828,-8.828 0,-4.882 3.955,-8.828 8.828,-8.828 h 52.966 c 4.873,0 8.828,3.946 8.828,8.828 0,4.882 -3.955,8.828 -8.828,8.828"
   style="fill:#000000" />
	<path
   inkscape:connector-curvature="0"
   id="path40"
   d="m 344.279,424.729 h -52.966 c -4.873,0 -8.828,-3.946 -8.828,-8.828 0,-4.882 3.955,-8.828 8.828,-8.828 h 52.966 c 4.873,0 8.828,3.946 8.828,8.828 0,4.882 -3.955,8.828 -8.828,8.828"
   style="fill:#000000" />
	<path
   inkscape:connector-curvature="0"
   id="path42"
   d="M 326.624,327.625 H 185.382 c -9.754,0 -17.655,-7.901 -17.655,-17.655 v -17.655 c 0,-9.754 7.901,-17.655 17.655,-17.655 h 141.241 c 9.754,0 17.655,7.901 17.655,17.655 v 17.655 c 10e-4,9.754 -7.9,17.655 -17.654,17.655"
   style="fill:#000000" />
	<path
   inkscape:connector-curvature="0"
   id="path44"
   d="m 264.831,301.142 c 0,4.873 -3.955,8.828 -8.828,8.828 -4.873,0 -8.828,-3.955 -8.828,-8.828 0,-4.873 3.955,-8.828 8.828,-8.828 4.873,10e-4 8.828,3.956 8.828,8.828"
   style="fill:#666666" />
</g><g
     transform="translate(0,-0.00799561)"
     id="g48">
</g><g
     transform="translate(0,-0.00799561)"
     id="g50">
</g><g
     transform="translate(0,-0.00799561)"
     id="g52">
</g><g
     transform="translate(0,-0.00799561)"
     id="g54">
</g><g
     transform="translate(0,-0.00799561)"
     id="g56">
</g><g
     transform="translate(0,-0.00799561)"
     id="g58">
</g><g
     transform="translate(0,-0.00799561)"
     id="g60">
</g><g
     transform="translate(0,-0.00799561)"
     id="g62">
</g><g
     transform="translate(0,-0.00799561)"
     id="g64">
</g><g
     transform="translate(0,-0.00799561)"
     id="g66">
</g><g
     transform="translate(0,-0.00799561)"
     id="g68">
</g><g
     transform="translate(0,-0.00799561)"
     id="g70">
</g><g
     transform="translate(0,-0.00799561)"
     id="g72">
</g><g
     transform="translate(0,-0.00799561)"
     id="g74">
</g><g
     transform="translate(0,-0.00799561)"
     id="g76">
</g></g>
<g
   id="g4288"
   transform="matrix(0.34315349,0,0,0.33875705,169.05059,6.435835)"
   inkscape:label="sciarpa"
   style="display:none;stroke:#cccccc;stroke-opacity:1"><g
     id="g4206"
     style="fill:#782121;stroke:#cccccc;stroke-opacity:1"><rect
       id="rect4200"
       height="66.494003"
       width="39.896"
       style="fill:#782121;stroke:#cccccc;stroke-opacity:1"
       y="325.81799"
       x="16.622999" /><rect
       id="rect4202"
       height="66.494003"
       width="39.896"
       style="fill:#782121;stroke:#cccccc;stroke-opacity:1"
       y="325.81799"
       x="176.20799" /><rect
       id="rect4204"
       height="66.494003"
       width="39.896"
       style="fill:#782121;stroke:#cccccc;stroke-opacity:1"
       y="325.81799"
       x="96.416" /></g><polygon
     id="polygon4208"
     points="216.104,345.766 216.104,152.935 16.623,199.481 16.623,345.766 "
     style="fill:#a02c2c;stroke:#cccccc;stroke-opacity:1" /><polygon
     id="polygon4210"
     points="295.896,0 16.623,0 16.623,199.481 295.896,199.481 329.143,106.39 "
     style="fill:#782121;stroke:#cccccc;stroke-opacity:1"
     transform="scale(1,1.1969005)" /><g
     id="g4220"
     style="stroke:#cccccc;stroke-opacity:1"><rect
       id="rect4212"
       height="39.896"
       width="319.16901"
       style="fill:#782121;stroke:#cccccc;stroke-opacity:1"
       y="79.792"
       x="16.622999" /><rect
       id="rect4214"
       height="66.494003"
       width="39.896"
       style="fill:#782121;stroke:#cccccc;stroke-opacity:1"
       y="445.50699"
       x="295.896" /><rect
       id="rect4216"
       height="66.494003"
       width="39.896"
       style="fill:#782121;stroke:#cccccc;stroke-opacity:1"
       y="445.50699"
       x="455.48001" /><rect
       id="rect4218"
       height="66.494003"
       width="39.896"
       style="fill:#782121;stroke:#cccccc;stroke-opacity:1"
       y="445.50699"
       x="375.68799" /></g><path
     id="path4222"
     d="M 295.896,0 V 465.455 H 495.377 V 0 Z"
     style="fill:#a02c2c;stroke:#cccccc;stroke-opacity:1"
     inkscape:connector-curvature="0" /><g
     id="g4224"
     style="stroke:#cccccc;stroke-opacity:1" /><g
     id="g4226"
     style="stroke:#cccccc;stroke-opacity:1" /><g
     id="g4228"
     style="stroke:#cccccc;stroke-opacity:1" /><g
     id="g4230"
     style="stroke:#cccccc;stroke-opacity:1" /><g
     id="g4232"
     style="stroke:#cccccc;stroke-opacity:1" /><g
     id="g4234"
     style="stroke:#cccccc;stroke-opacity:1" /><g
     id="g4236"
     style="stroke:#cccccc;stroke-opacity:1" /><g
     id="g4238"
     style="stroke:#cccccc;stroke-opacity:1" /><g
     id="g4240"
     style="stroke:#cccccc;stroke-opacity:1" /><g
     id="g4242"
     style="stroke:#cccccc;stroke-opacity:1" /><g
     id="g4244"
     style="stroke:#cccccc;stroke-opacity:1" /><g
     id="g4246"
     style="stroke:#cccccc;stroke-opacity:1" /><g
     id="g4248"
     style="stroke:#cccccc;stroke-opacity:1" /><g
     id="g4250"
     style="stroke:#cccccc;stroke-opacity:1" /><g
     id="g4252"
     style="stroke:#cccccc;stroke-opacity:1" /></g><path
   style="fill:#f9f9f9;fill-opacity:1;stroke:#cccccc;stroke-width:0.76704305;stroke-opacity:1"
   d="M 174.78548,105.58243 V 87.711958 h 34.13342 34.13341 V 105.58243 123.4529 H 208.9189 174.78548 Z"
   id="path878"
   inkscape:connector-curvature="0" /><path
   style="fill:#f9f9f9;fill-opacity:1;stroke:#cccccc;stroke-width:0.76704305;stroke-opacity:1"
   d="M 270.66586,85.255787 V 6.4053955 h 34.13342 34.13341 V 85.255787 164.10618 h -34.13341 -34.13342 z"
   id="path880"
   inkscape:connector-curvature="0" /><path
   style="fill:#cccccc;fill-opacity:1;stroke:#cccccc;stroke-width:0.76704305;stroke-opacity:1"
   d="M 174.78548,47.182455 V 7.4199944 l 23.58657,-0.5059522 c 12.97262,-0.2782737 34.37312,-0.5065585 47.55667,-0.5072995 l 23.9701,-0.00135 v 40.2697593 40.26976 h -47.55667 -47.55667 z"
   id="path898"
   inkscape:connector-curvature="0" /><path
   style="fill:#cccccc;fill-opacity:1;stroke:#cccccc;stroke-width:0.76704305;stroke-opacity:1"
   d="m 174.78548,131.81693 v -7.28691 h 6.51987 6.51986 l 0.0105,5.56107 c 0.006,3.05858 0.21861,6.33769 0.47299,7.28691 0.45488,1.69738 0.34718,1.72584 -6.53034,1.72584 h -6.99285 z"
   id="path900"
   inkscape:connector-curvature="0" /><path
   style="fill:#cccccc;fill-opacity:1;stroke:#cccccc;stroke-width:0.76704305;stroke-opacity:1"
   d="m 202.39903,131.81693 v -7.28691 h 6.51987 6.51986 v 7.28691 7.28691 h -6.51986 -6.51987 z"
   id="path902"
   inkscape:connector-curvature="0" /><path
   style="fill:#cccccc;fill-opacity:1;stroke:#cccccc;stroke-width:0.76704305;stroke-opacity:1"
   d="m 230.01258,131.81693 v -7.28691 h 6.51987 6.51986 v 7.28691 7.28691 h -6.51986 -6.51987 z"
   id="path904"
   inkscape:connector-curvature="0" /><path
   style="fill:#cccccc;fill-opacity:1;stroke:#cccccc;stroke-width:0.76704305;stroke-opacity:1"
   d="m 270.66586,172.47021 v -7.2869 h 6.90339 6.90339 v 7.2869 7.28691 h -6.90339 -6.90339 z"
   id="path906"
   inkscape:connector-curvature="0" /><path
   style="fill:#cccccc;fill-opacity:1;stroke:#cccccc;stroke-width:0.76704305;stroke-opacity:1"
   d="m 298.27941,172.47021 v -7.2869 h 6.51987 6.51986 v 7.2869 7.28691 h -6.51986 -6.51987 z"
   id="path908"
   inkscape:connector-curvature="0" /><path
   style="fill:#cccccc;fill-opacity:1;stroke:#cccccc;stroke-width:0.76704305;stroke-opacity:1"
   d="m 325.77219,175.73015 c -0.14451,-2.21484 -0.15661,-5.49395 -0.0269,-7.28691 l 0.23587,-3.25993 h 6.47576 6.47576 v 7.2869 7.28691 h -6.44887 -6.44888 z"
   id="path910"
   inkscape:connector-curvature="0" /></svg>