<?xml version="1.0" encoding="UTF-8" standalone="no"?>
<!-- Generator: Adobe Illustrator 19.0.0, SVG Export Plug-In . SVG Version: 6.00 Build 0)  -->

<svg
   xmlns:dc="http://purl.org/dc/elements/1.1/"
   xmlns:cc="http://creativecommons.org/ns#"
   xmlns:rdf="http://www.w3.org/1999/02/22-rdf-syntax-ns#"
   xmlns:svg="http://www.w3.org/2000/svg"
   xmlns="http://www.w3.org/2000/svg"
   xmlns:sodipodi="http://sodipodi.sourceforge.net/DTD/sodipodi-0.dtd"
   xmlns:inkscape="http://www.inkscape.org/namespaces/inkscape"
   version="1.1"
   id="Layer_1"
   x="0px"
   y="0px"
   viewBox="0 0 505 505"
   style="enable-background:new 0 0 505 505;"
   xml:space="preserve"
   sodipodi:docname="shirt.svg"
   inkscape:export-filename="C:\Users\lucab\Dev\cruciani-stylist\res\shirt.png"
   inkscape:export-xdpi="97.330002"
   inkscape:export-ydpi="97.330002"
   inkscape:version="0.92.4 (5da689c313, 2019-01-14)"><metadata
   id="metadata73"><rdf:RDF><cc:Work
       rdf:about=""><dc:format>image/svg+xml</dc:format><dc:type
         rdf:resource="http://purl.org/dc/dcmitype/StillImage" /><dc:title></dc:title></cc:Work></rdf:RDF></metadata><defs
   id="defs71" /><sodipodi:namedview
   pagecolor="#ffffff"
   bordercolor="#666666"
   borderopacity="1"
   objecttolerance="10"
   gridtolerance="10"
   guidetolerance="10"
   inkscape:pageopacity="0"
   inkscape:pageshadow="2"
   inkscape:window-width="1920"
   inkscape:window-height="1017"
   id="namedview69"
   showgrid="false"
   inkscape:zoom="0.93465346"
   inkscape:cx="144.67601"
   inkscape:cy="211.18984"
   inkscape:window-x="-8"
   inkscape:window-y="-8"
   inkscape:window-maximized="1"
   inkscape:current-layer="Layer_1" />

<g
   id="g8"
   transform="matrix(1.478577,0,0,1.478577,-120.3382,-144.92861)">
	<path
   style="fill:#ffffff"
   d="m 162.5,432.6 h 177.9 c -4.2,-64 -0.5,-178.8 -0.5,-178.8 l 61,-25.9 -35.8,-88.4 c -2.3,-3.8 -65.5,-26.7 -65.5,-26.7 h -0.1 c 2.6,3.3 4.1,6.9 4.1,10.7 0,15.2 -23.3,27.6 -52.1,27.6 -28.8,0 -52.1,-12.4 -52.1,-27.6 0,-3.8 1.5,-7.4 4.1,-10.7 h -0.1 c 0,0 -63.3,22.9 -65.5,26.7 l -35.8,88.4 61,25.9 c -0.1,0 3.6,114.8 -0.6,178.8 z"
   id="path4"
   inkscape:connector-curvature="0" />
	<path
   style="fill:#e3644e;fill-opacity:1"
   d="M 340.4,432.6 H 162.5 c 4.2,-64 0.5,-178.8 0.5,-178.8 l -61,-26 35.8,-88.4 c 1.8,-2.9 40,-17.3 57.2,-23.6 5.1,-1.9 8.3,-3.1 8.3,-3.1 h 0.1 c -2.6,3.3 -4.1,6.9 -4.1,10.7 0,15.3 23.3,27.6 52.1,27.6 28.8,0 52.1,-12.4 52.1,-27.6 0,-3.8 -1.5,-7.4 -4.1,-10.7 v 0 c 0,0 3.3,1.2 8.3,3.1 17.2,6.3 55.4,20.7 57.2,23.6 l 35.8,88.4 -61,26 c 0.3,0 -3.4,114.8 0.7,178.8 z"
   id="path6"
   inkscape:connector-curvature="0" />
<g
   transform="matrix(0.59022198,0,0,0.447424,103.74916,106.19983)"
   id="collo_camicia"
   inkscape:label="collo_camicia"
   style="display:inline"><path
     id="luce_collo"
     d="m 340.4,33.6 c 0,28 -36.26817,80.86977 -86.66817,80.86977 C 203.33183,114.46977 158,61.6 158,33.6 158,5.6 198.8,0 249.2,0 c 50.4,0 91.2,4.8 91.2,33.6 z"
     style="fill:#a8a8a8"
     inkscape:connector-curvature="0"
     inkscape:label="luce_collo"
     sodipodi:nodetypes="sssss" /><path
     id="ombra_collo"
     d="m 249.2,22.4 c 44.8,0 82.4,4 89.6,21.6 0.8,-4 1.6,-7.2 1.6,-10.4 C 340.4,5.6 299.6,0 249.2,0 198.8,0 158,4.8 158,33.6 c 0,3.2 0.8,6.4 1.6,10.4 7.2,-17.6 44.8,-21.6 89.6,-21.6 z"
     style="fill:#8c8c8c"
     inkscape:connector-curvature="0"
     inkscape:label="ombra_collo" /></g></g>
<path
   style="fill:#ff7058;stroke-width:1.47857702"
   d="m 121.40915,464.39298 c -0.44358,10.64576 -0.88715,20.84794 -1.47858,30.31084 h 263.03886 c -0.59143,-9.4629 -1.035,-19.66508 -1.47858,-30.31084 z"
   id="path10"
   inkscape:connector-curvature="0" />



<g
   id="g36"
   transform="matrix(1.478577,0,0,1.478577,-120.3382,-144.92861)">
	<path
   style="fill:#ff7058"
   d="m 310.5,125.9 c 0,18.9 -26.4,34.2 -59,34.2 -32.6,0 -59,-15.3 -59,-34.2 0,-3.5 0.9,-6.9 2.6,-10.1 5.1,-1.9 8.3,-3.1 8.3,-3.1 h 0.1 c -2.6,3.3 -4.1,6.9 -4.1,10.7 0,15.3 23.3,27.6 52.1,27.6 28.8,0 52.1,-12.4 52.1,-27.6 0,-3.8 -1.5,-7.4 -4.1,-10.7 v 0 c 0,0 3.3,1.2 8.3,3.1 1.8,3.2 2.7,6.6 2.7,10.1 z"
   id="path26"
   inkscape:connector-curvature="0" />
	<polygon
   style="fill:#ff7058"
   points="340,253.8 400.9,227.8 365.1,139.4 353.9,162.9 343.1,209.8 "
   id="polygon28" />
	<path
   style="fill:#ff7058"
   d="m 365.1,139.4 c 0,0 -23.7,30.8 -25.2,114.3 l 4.6,-1.9 c 0,0 -3.6,-55.6 20.6,-112.4 z"
   id="path30"
   inkscape:connector-curvature="0" />
	<polygon
   style="fill:#ff7058"
   points="163,253.8 102.1,227.8 137.9,139.4 149.1,162.9 159.8,209.8 "
   id="polygon32" />
	<path
   style="fill:#ff7058"
   d="m 137.9,139.4 c 0,0 23.7,30.8 25.2,114.3 l -4.6,-1.9 c -0.1,0 3.6,-55.6 -20.6,-112.4 z"
   id="path34"
   inkscape:connector-curvature="0" />
</g>
<g
   id="g38"
   transform="matrix(1.478577,0,0,1.478577,-120.3382,-144.92861)">
</g>
<g
   id="g40"
   transform="matrix(1.478577,0,0,1.478577,-120.3382,-144.92861)">
</g>
<g
   id="g42"
   transform="matrix(1.478577,0,0,1.478577,-120.3382,-144.92861)">
</g>
<g
   id="g44"
   transform="matrix(1.478577,0,0,1.478577,-120.3382,-144.92861)">
</g>
<g
   id="g46"
   transform="matrix(1.478577,0,0,1.478577,-120.3382,-144.92861)">
</g>
<g
   id="g48"
   transform="matrix(1.478577,0,0,1.478577,-120.3382,-144.92861)">
</g>
<g
   id="g50"
   transform="matrix(1.478577,0,0,1.478577,-120.3382,-144.92861)">
</g>
<g
   id="g52"
   transform="matrix(1.478577,0,0,1.478577,-120.3382,-144.92861)">
</g>
<g
   id="g54"
   transform="matrix(1.478577,0,0,1.478577,-120.3382,-144.92861)">
</g>
<g
   id="g56"
   transform="matrix(1.478577,0,0,1.478577,-120.3382,-144.92861)">
</g>
<g
   id="g58"
   transform="matrix(1.478577,0,0,1.478577,-120.3382,-144.92861)">
</g>
<g
   id="g60"
   transform="matrix(1.478577,0,0,1.478577,-120.3382,-144.92861)">
</g>
<g
   id="g62"
   transform="matrix(1.478577,0,0,1.478577,-120.3382,-144.92861)">
</g>
<g
   id="g64"
   transform="matrix(1.478577,0,0,1.478577,-120.3382,-144.92861)">
</g>
<g
   id="g66"
   transform="matrix(1.478577,0,0,1.478577,-120.3382,-144.92861)">
</g>
</svg>